<svg version="1.1" id="Layer_1" xmlns="http://www.w3.org/2000/svg" xmlns:xlink="http://www.w3.org/1999/xlink" x="0px" y="0px"
	 width="100%" viewBox="0 0 400 400" enable-background="new 0 0 400 400" xml:space="preserve">
<path fill="#FEFEFE" opacity="1.000000" stroke="none" 
	d="
M261.000000,401.000000 
	C174.000000,401.000000 87.500000,401.000000 1.000000,401.000000 
	C1.000000,267.666656 1.000000,134.333328 1.000000,1.000000 
	C134.333328,1.000000 267.666656,1.000000 401.000000,1.000000 
	C401.000000,134.333328 401.000000,267.666656 401.000000,401.000000 
	C354.500000,401.000000 308.000000,401.000000 261.000000,401.000000 
M275.321899,93.865585 
	C269.235291,104.373802 262.974640,114.787033 257.160004,125.443642 
	C255.220428,128.998352 253.231903,129.808105 249.592102,128.437637 
	C244.927719,126.681389 240.167755,125.135307 235.366669,123.793098 
	C208.339142,116.237206 181.683075,117.711853 155.451401,127.454094 
	C148.807678,129.921539 147.904572,129.846268 144.241699,123.651169 
	C138.904678,114.624542 133.642166,105.551659 128.507309,96.408958 
	C126.818863,93.402641 124.708260,91.291840 121.379074,93.156357 
	C117.951599,95.075920 118.946945,97.942032 120.677452,100.855621 
	C126.541748,110.729103 132.192780,120.729103 138.031906,130.617813 
	C139.602448,133.277573 139.446136,134.844559 136.562836,136.613861 
	C131.192657,139.909164 125.829041,143.348450 121.003738,147.376022 
	C96.284187,168.008820 82.011398,194.519150 77.149490,226.268982 
	C76.460312,230.769485 77.780693,231.980774 82.317871,231.973160 
	C160.135513,231.842621 237.953445,231.875519 315.771301,231.873047 
	C317.770905,231.872986 319.773407,231.811432 321.769409,231.897675 
	C324.973328,232.036133 326.114563,230.377243 325.330811,227.528412 
	C322.120026,215.857498 319.846466,203.785660 315.282471,192.659454 
	C305.322876,168.379715 288.336670,149.737000 265.695923,136.391754 
	C262.888153,134.736755 262.517883,133.514786 264.290955,130.596481 
	C270.334839,120.648689 276.097076,110.523857 281.698273,100.319183 
	C282.587708,98.698730 282.962311,95.385445 282.028809,94.517136 
	C280.744537,93.322617 277.986969,93.712143 275.321899,93.865585 
M317.132721,266.442871 
	C317.132721,269.495758 317.132721,272.548645 317.132721,275.964783 
	C307.306732,269.876556 298.926025,270.686859 292.852142,277.847534 
	C286.796112,284.987152 286.955597,296.537445 293.207306,303.567688 
	C299.185516,310.290375 308.059113,310.917877 314.948395,306.306824 
	C319.034576,307.394806 321.874542,308.150970 325.004913,308.984467 
	C325.004913,290.118469 325.004913,272.527466 325.004913,254.815094 
	C322.347321,254.815094 319.933807,254.815094 317.132721,254.815094 
	C317.132721,258.554169 317.132721,262.016724 317.132721,266.442871 
M190.105652,263.551178 
	C190.105652,267.619354 190.105652,271.687561 190.105652,276.087433 
	C180.303040,269.849579 171.630554,270.627441 165.598801,277.881592 
	C159.591537,285.106293 159.947357,297.310760 166.361633,304.047577 
	C172.335419,310.321747 181.597198,310.747803 188.153656,306.001434 
	C191.759354,307.241211 194.533249,308.195007 197.848724,309.334991 
	C197.848724,290.303589 197.848724,272.605865 197.848724,254.843369 
	C195.176086,254.843369 192.769760,254.843369 190.105652,254.843369 
	C190.105652,257.625702 190.105652,260.104980 190.105652,263.551178 
M81.209991,303.223938 
	C88.380066,310.333557 94.803703,310.966919 104.669838,306.945435 
	C107.480743,307.579773 110.291649,308.214111 113.568176,308.953522 
	C113.568176,296.319641 113.568176,284.735779 113.568176,272.838715 
	C110.193008,272.953094 106.333252,270.481598 104.849129,275.785706 
	C98.619148,271.548035 94.084541,270.727997 88.735725,272.746429 
	C76.820404,277.242798 73.293884,290.433990 81.209991,303.223938 
M236.062897,304.470459 
	C237.140335,305.246887 238.163559,306.115692 239.303833,306.785095 
	C248.055542,311.923035 260.105164,308.907898 265.155457,300.350861 
	C270.498474,291.297974 267.862762,280.004333 259.130005,274.532654 
	C251.411560,269.696503 240.492157,271.277649 234.562073,278.090088 
	C228.246872,285.344940 228.634171,295.696625 236.062897,304.470459 
M155.071365,292.529114 
	C155.066071,290.198914 155.112518,287.867279 155.046341,285.538818 
	C154.787552,276.431549 148.156738,270.563538 139.261124,271.955933 
	C136.465866,272.393494 133.849869,273.976379 131.160889,275.031464 
	C129.484650,270.369995 125.827553,273.282593 122.488060,272.634888 
	C122.488060,282.541779 122.489090,291.985535 122.487724,301.429260 
	C122.486618,309.064392 122.799919,309.321259 130.621643,307.827148 
	C130.671799,307.093628 130.769272,306.294586 130.774231,305.494965 
	C130.810379,299.669830 130.644409,293.836395 130.905899,288.021881 
	C131.140778,282.798645 135.187836,279.034119 139.851089,279.181519 
	C144.313354,279.322540 146.976456,282.556366 147.080170,288.160217 
	C147.163315,292.652710 147.099197,297.147919 147.099594,301.641937 
	C147.100220,308.850250 147.511902,309.187683 155.071304,307.885254 
	C155.071304,303.130463 155.071304,298.323486 155.071365,292.529114 
M212.446625,308.484924 
	C213.312241,307.472473 214.844299,306.509888 214.924469,305.438629 
	C215.221756,301.464966 215.036102,297.455566 215.040344,293.459564 
	C215.051117,283.294006 217.526291,280.580536 227.493744,279.796234 
	C227.493744,277.376495 227.493744,274.956787 227.493744,270.965302 
	C222.822189,272.795135 218.935654,274.317505 215.173111,275.791290 
	C215.088318,275.312897 214.851608,273.977417 214.647797,272.827576 
	C211.943436,272.827576 209.657578,272.827576 207.016525,272.827576 
	C207.016525,283.689758 207.077621,294.313263 206.981689,304.935364 
	C206.950287,308.412628 209.072266,308.586426 212.446625,308.484924 
M274.077606,282.549377 
	C274.077820,288.848328 274.076813,295.147247 274.078583,301.446198 
	C274.080719,309.037018 274.303009,309.219269 281.919189,307.871979 
	C281.919189,296.197235 281.919189,284.519226 281.919189,272.868042 
	C279.190521,272.868042 276.774872,272.868042 274.077026,272.868042 
	C274.077026,275.972595 274.077026,278.772583 274.077606,282.549377 
M273.098145,261.061981 
	C275.151672,262.300537 277.101135,264.128876 279.304596,264.517700 
	C280.336975,264.699860 282.549072,262.308044 283.016663,260.725372 
	C284.000183,257.396210 282.380219,254.635483 278.855225,254.242355 
	C274.795593,253.789612 272.852173,256.240784 273.098145,261.061981 
z"/>
<path fill="#56D894" opacity="1.000000" stroke="none" 
	d="
M275.591248,93.644302 
	C277.986969,93.712143 280.744537,93.322617 282.028809,94.517136 
	C282.962311,95.385445 282.587708,98.698730 281.698273,100.319183 
	C276.097076,110.523857 270.334839,120.648689 264.290955,130.596481 
	C262.517883,133.514786 262.888153,134.736755 265.695923,136.391754 
	C288.336670,149.737000 305.322876,168.379715 315.282471,192.659454 
	C319.846466,203.785660 322.120026,215.857498 325.330811,227.528412 
	C326.114563,230.377243 324.973328,232.036133 321.769409,231.897675 
	C319.773407,231.811432 317.770905,231.872986 315.771301,231.873047 
	C237.953445,231.875519 160.135513,231.842621 82.317871,231.973160 
	C77.780693,231.980774 76.460312,230.769485 77.149490,226.268982 
	C82.011398,194.519150 96.284187,168.008820 121.003738,147.376022 
	C125.829041,143.348450 131.192657,139.909164 136.562836,136.613861 
	C139.446136,134.844559 139.602448,133.277573 138.031906,130.617813 
	C132.192780,120.729103 126.541748,110.729103 120.677452,100.855621 
	C118.946945,97.942032 117.951599,95.075920 121.379074,93.156357 
	C124.708260,91.291840 126.818863,93.402641 128.507309,96.408958 
	C133.642166,105.551659 138.904678,114.624542 144.241699,123.651169 
	C147.904572,129.846268 148.807678,129.921539 155.451401,127.454094 
	C181.683075,117.711853 208.339142,116.237206 235.366669,123.793098 
	C240.167755,125.135307 244.927719,126.681389 249.592102,128.437637 
	C253.231903,129.808105 255.220428,128.998352 257.160004,125.443642 
	C262.974640,114.787033 269.235291,104.373802 275.591248,93.644302 
M259.438782,126.112701 
	C257.603821,133.988083 254.438629,135.111679 248.183990,130.226852 
	C247.027618,129.323730 245.597031,128.527328 244.180008,128.241104 
	C232.936157,125.970047 222.303131,121.096191 210.194016,122.564949 
	C200.411880,123.751450 190.293762,122.111839 180.492844,123.217072 
	C172.032013,124.171181 163.374039,126.263374 155.655853,129.743454 
	C151.571503,131.585068 148.415710,134.179047 143.863464,132.540100 
	C143.320953,126.313362 141.745331,120.724815 135.858582,118.125404 
	C135.726196,116.083656 135.921982,114.380539 135.465103,112.875565 
	C133.503845,106.415253 127.060471,102.714905 125.018311,96.237144 
	C124.844719,95.686501 123.837975,95.398506 122.034943,94.205566 
	C122.438652,96.988167 122.251534,98.822014 122.975281,100.164978 
	C126.819626,107.298416 130.887299,114.311630 134.888336,121.360413 
	C136.909180,124.920624 139.265717,128.339584 140.806122,132.094925 
	C141.306030,133.313644 140.185837,136.035645 138.964722,136.971695 
	C134.458664,140.425842 129.217651,142.981659 124.964828,146.691345 
	C118.776268,152.089569 112.850624,157.888245 107.477097,164.091553 
	C102.890770,169.386078 99.026810,175.355423 95.250175,181.285385 
	C92.638634,185.385925 90.719467,189.927460 88.449211,194.353241 
	C89.161201,195.557236 89.954597,196.898880 91.040504,198.735184 
	C85.908936,198.490219 84.723587,201.569626 83.974831,205.236511 
	C82.893990,210.529709 81.667084,215.793839 80.452347,221.058777 
	C78.705162,228.631500 79.738098,230.010788 87.287720,230.010895 
	C163.446854,230.012024 239.606003,230.011658 315.765137,230.010773 
	C317.098267,230.010757 318.697083,230.454498 319.694885,229.872879 
	C320.848236,229.200562 322.277832,227.566620 322.203064,226.442261 
	C321.334869,213.388382 318.258789,200.880737 311.290100,189.672104 
	C305.281952,180.008484 299.840332,169.719452 292.324280,161.343628 
	C284.853760,153.018555 275.048096,146.806396 266.401794,139.507339 
	C264.078613,137.546143 259.688812,136.530396 261.257721,132.072998 
	C262.273468,129.187210 264.047119,126.562828 265.530090,123.848038 
	C268.552582,118.315010 271.608124,112.800049 274.650085,107.277649 
	C274.186340,106.870827 273.722595,106.464005 273.258850,106.057182 
	C271.909088,106.717293 269.952087,107.017258 269.311218,108.097801 
	C265.951172,113.763084 262.924408,119.626053 259.438782,126.112701 
z"/>
<path fill="#0A0A0A" opacity="1.000000" stroke="none" 
	d="
M317.132721,265.961060 
	C317.132721,262.016724 317.132721,258.554169 317.132721,254.815094 
	C319.933807,254.815094 322.347321,254.815094 325.004913,254.815094 
	C325.004913,272.527466 325.004913,290.118469 325.004913,308.984467 
	C321.874542,308.150970 319.034576,307.394806 314.948395,306.306824 
	C308.059113,310.917877 299.185516,310.290375 293.207306,303.567688 
	C286.955597,296.537445 286.796112,284.987152 292.852142,277.847534 
	C298.926025,270.686859 307.306732,269.876556 317.132721,275.964783 
	C317.132721,272.548645 317.132721,269.495758 317.132721,265.961060 
M316.977936,285.853546 
	C313.603668,279.925842 308.799408,277.775818 303.484955,279.815033 
	C298.340149,281.789154 295.563141,287.954498 297.113953,293.959473 
	C298.535645,299.464447 304.569855,303.199127 309.773193,301.794464 
	C315.966980,300.122437 318.986298,293.959595 316.977936,285.853546 
z"/>
<path fill="#0A0A0A" opacity="1.000000" stroke="none" 
	d="
M190.105652,263.067688 
	C190.105652,260.104980 190.105652,257.625702 190.105652,254.843369 
	C192.769760,254.843369 195.176086,254.843369 197.848724,254.843369 
	C197.848724,272.605865 197.848724,290.303589 197.848724,309.334991 
	C194.533249,308.195007 191.759354,307.241211 188.153656,306.001434 
	C181.597198,310.747803 172.335419,310.321747 166.361633,304.047577 
	C159.947357,297.310760 159.591537,285.106293 165.598801,277.881592 
	C171.630554,270.627441 180.303040,269.849579 190.105652,276.087433 
	C190.105652,271.687561 190.105652,267.619354 190.105652,263.067688 
M189.615936,295.825989 
	C190.021835,294.392670 190.632492,292.982330 190.796112,291.521851 
	C191.336334,286.700195 188.205444,281.483002 183.959183,279.855042 
	C179.360519,278.091919 174.280991,279.605682 171.555908,283.551392 
	C168.078171,288.586884 169.413452,296.637268 174.299149,300.090515 
	C179.485809,303.756500 184.822952,302.443878 189.615936,295.825989 
z"/>
<path fill="#0D0D0D" opacity="1.000000" stroke="none" 
	d="
M80.974228,302.942322 
	C73.293884,290.433990 76.820404,277.242798 88.735725,272.746429 
	C94.084541,270.727997 98.619148,271.548035 104.849129,275.785706 
	C106.333252,270.481598 110.193008,272.953094 113.568176,272.838715 
	C113.568176,284.735779 113.568176,296.319641 113.568176,308.953522 
	C110.291649,308.214111 107.480743,307.579773 104.669838,306.945435 
	C94.803703,310.966919 88.380066,310.333557 80.974228,302.942322 
M97.900620,301.836365 
	C104.166763,298.973572 106.454361,295.651550 106.100365,289.704559 
	C105.819588,284.987671 103.675514,281.410309 99.104866,279.793976 
	C95.011841,278.346558 91.203850,279.099976 88.166962,282.356415 
	C84.610741,286.169739 84.116493,290.726288 86.018906,295.326599 
	C87.989655,300.092163 91.807755,302.423096 97.900620,301.836365 
z"/>
<path fill="#0C0C0C" opacity="1.000000" stroke="none" 
	d="
M235.796738,304.223572 
	C228.634171,295.696625 228.246872,285.344940 234.562073,278.090088 
	C240.492157,271.277649 251.411560,269.696503 259.130005,274.532654 
	C267.862762,280.004333 270.498474,291.297974 265.155457,300.350861 
	C260.105164,308.907898 248.055542,311.923035 239.303833,306.785095 
	C238.163559,306.115692 237.140335,305.246887 235.796738,304.223572 
M242.814117,299.833160 
	C248.707291,302.881653 253.054367,302.398682 256.769409,298.282715 
	C260.166351,294.519165 260.680115,288.723724 258.000061,284.400208 
	C255.302414,280.048279 250.406204,278.335632 245.440109,279.833069 
	C238.129471,282.037476 235.051865,293.407837 242.814117,299.833160 
z"/>
<path fill="#0A0A0A" opacity="1.000000" stroke="none" 
	d="
M155.071335,293.022827 
	C155.071304,298.323486 155.071304,303.130463 155.071304,307.885254 
	C147.511902,309.187683 147.100220,308.850250 147.099594,301.641937 
	C147.099197,297.147919 147.163315,292.652710 147.080170,288.160217 
	C146.976456,282.556366 144.313354,279.322540 139.851089,279.181519 
	C135.187836,279.034119 131.140778,282.798645 130.905899,288.021881 
	C130.644409,293.836395 130.810379,299.669830 130.774231,305.494965 
	C130.769272,306.294586 130.671799,307.093628 130.621643,307.827148 
	C122.799919,309.321259 122.486618,309.064392 122.487724,301.429260 
	C122.489090,291.985535 122.488060,282.541779 122.488060,272.634888 
	C125.827553,273.282593 129.484650,270.369995 131.160889,275.031464 
	C133.849869,273.976379 136.465866,272.393494 139.261124,271.955933 
	C148.156738,270.563538 154.787552,276.431549 155.046341,285.538818 
	C155.112518,287.867279 155.066071,290.198914 155.071335,293.022827 
z"/>
<path fill="#090909" opacity="1.000000" stroke="none" 
	d="
M212.019928,308.486633 
	C209.072266,308.586426 206.950287,308.412628 206.981689,304.935364 
	C207.077621,294.313263 207.016525,283.689758 207.016525,272.827576 
	C209.657578,272.827576 211.943436,272.827576 214.647797,272.827576 
	C214.851608,273.977417 215.088318,275.312897 215.173111,275.791290 
	C218.935654,274.317505 222.822189,272.795135 227.493744,270.965302 
	C227.493744,274.956787 227.493744,277.376495 227.491302,279.798889 
	C217.526291,280.580536 215.051117,283.294006 215.040344,293.459564 
	C215.036102,297.455566 215.221756,301.464966 214.924469,305.438629 
	C214.844299,306.509888 213.312241,307.472473 212.019928,308.486633 
z"/>
<path fill="#0A0A0A" opacity="1.000000" stroke="none" 
	d="
M274.077332,282.060974 
	C274.077026,278.772583 274.077026,275.972595 274.077026,272.868042 
	C276.774872,272.868042 279.190521,272.868042 281.919189,272.868042 
	C281.919189,284.519226 281.919189,296.197235 281.919189,307.871979 
	C274.303009,309.219269 274.080719,309.037018 274.078583,301.446198 
	C274.076813,295.147247 274.077820,288.848328 274.077332,282.060974 
z"/>
<path fill="#101010" opacity="1.000000" stroke="none" 
	d="
M273.028320,260.673431 
	C272.852173,256.240784 274.795593,253.789612 278.855225,254.242355 
	C282.380219,254.635483 284.000183,257.396210 283.016663,260.725372 
	C282.549072,262.308044 280.336975,264.699860 279.304596,264.517700 
	C277.101135,264.128876 275.151672,262.300537 273.028320,260.673431 
z"/>
<path fill="#32DE84" opacity="1.000000" stroke="none" 
	d="
M259.610291,125.766510 
	C262.924408,119.626053 265.951172,113.763084 269.311218,108.097801 
	C269.952087,107.017258 271.909088,106.717293 273.258850,106.057182 
	C273.722595,106.464005 274.186340,106.870827 274.650085,107.277649 
	C271.608124,112.800049 268.552582,118.315010 265.530090,123.848038 
	C264.047119,126.562828 262.273468,129.187210 261.257721,132.072998 
	C259.688812,136.530396 264.078613,137.546143 266.401794,139.507339 
	C275.048096,146.806396 284.853760,153.018555 292.324280,161.343628 
	C299.840332,169.719452 305.281952,180.008484 311.290100,189.672104 
	C318.258789,200.880737 321.334869,213.388382 322.203064,226.442261 
	C322.277832,227.566620 320.848236,229.200562 319.694885,229.872879 
	C318.697083,230.454498 317.098267,230.010757 315.765137,230.010773 
	C239.606003,230.011658 163.446854,230.012024 87.287720,230.010895 
	C79.738098,230.010788 78.705162,228.631500 80.452347,221.058777 
	C81.667084,215.793839 82.893990,210.529709 83.974831,205.236511 
	C84.723587,201.569626 85.908936,198.490219 91.040504,198.735184 
	C89.954597,196.898880 89.161201,195.557236 88.449211,194.353241 
	C90.719467,189.927460 92.638634,185.385925 95.250175,181.285385 
	C99.026810,175.355423 102.890770,169.386078 107.477097,164.091553 
	C112.850624,157.888245 118.776268,152.089569 124.964828,146.691345 
	C129.217651,142.981659 134.458664,140.425842 138.964722,136.971695 
	C140.185837,136.035645 141.306030,133.313644 140.806122,132.094925 
	C139.265717,128.339584 136.909180,124.920624 134.888336,121.360413 
	C130.887299,114.311630 126.819626,107.298416 122.975281,100.164978 
	C122.251534,98.822014 122.438652,96.988167 122.034943,94.205566 
	C123.837975,95.398506 124.844719,95.686501 125.018311,96.237144 
	C127.060471,102.714905 133.503845,106.415253 135.465103,112.875565 
	C135.921982,114.380539 135.726196,116.083656 135.858582,118.125404 
	C141.745331,120.724815 143.320953,126.313362 143.863464,132.540100 
	C148.415710,134.179047 151.571503,131.585068 155.655853,129.743454 
	C163.374039,126.263374 172.032013,124.171181 180.492844,123.217072 
	C190.293762,122.111839 200.411880,123.751450 210.194016,122.564949 
	C222.303131,121.096191 232.936157,125.970047 244.180008,128.241104 
	C245.597031,128.527328 247.027618,129.323730 248.183990,130.226852 
	C254.438629,135.111679 257.603821,133.988083 259.610291,125.766510 
M260.081543,197.664551 
	C260.878174,197.851639 261.841949,198.427277 262.446228,198.167282 
	C271.006317,194.484299 273.351013,184.688751 267.101257,177.345688 
	C264.175537,173.908142 259.620789,171.396057 255.083160,173.305847 
	C252.574753,174.361588 251.136368,177.959656 249.169296,180.740479 
	C249.169296,180.740479 248.955734,180.994751 248.222107,180.979156 
	C246.731125,180.460526 245.240143,179.941895 242.986938,179.158127 
	C244.025589,185.715164 245.723480,191.472321 249.930191,196.074982 
	C250.833328,197.063110 253.294647,196.627121 255.866806,196.808273 
	C257.246460,196.878281 258.626099,196.948303 260.081543,197.664551 
M142.818329,196.854889 
	C150.266800,196.695450 155.134140,192.197235 154.730209,185.846375 
	C154.342911,179.757065 149.543198,175.758881 143.091537,176.151337 
	C138.217865,176.447800 134.163315,180.408127 133.555984,185.465317 
	C132.938812,190.604599 135.870361,194.520020 142.818329,196.854889 
z"/>
<path fill="#F7F7F7" opacity="1.000000" stroke="none" 
	d="
M317.096802,286.228485 
	C318.986298,293.959595 315.966980,300.122437 309.773193,301.794464 
	C304.569855,303.199127 298.535645,299.464447 297.113953,293.959473 
	C295.563141,287.954498 298.340149,281.789154 303.484955,279.815033 
	C308.799408,277.775818 313.603668,279.925842 317.096802,286.228485 
z"/>
<path fill="#F6F6F6" opacity="1.000000" stroke="none" 
	d="
M189.382339,296.132202 
	C184.822952,302.443878 179.485809,303.756500 174.299149,300.090515 
	C169.413452,296.637268 168.078171,288.586884 171.555908,283.551392 
	C174.280991,279.605682 179.360519,278.091919 183.959183,279.855042 
	C188.205444,281.483002 191.336334,286.700195 190.796112,291.521851 
	C190.632492,292.982330 190.021835,294.392670 189.382339,296.132202 
z"/>
<path fill="#F6F6F6" opacity="1.000000" stroke="none" 
	d="
M97.504089,301.887878 
	C91.807755,302.423096 87.989655,300.092163 86.018906,295.326599 
	C84.116493,290.726288 84.610741,286.169739 88.166962,282.356415 
	C91.203850,279.099976 95.011841,278.346558 99.104866,279.793976 
	C103.675514,281.410309 105.819588,284.987671 106.100365,289.704559 
	C106.454361,295.651550 104.166763,298.973572 97.504089,301.887878 
z"/>
<path fill="#F5F5F5" opacity="1.000000" stroke="none" 
	d="
M242.512939,299.600586 
	C235.051865,293.407837 238.129471,282.037476 245.440109,279.833069 
	C250.406204,278.335632 255.302414,280.048279 258.000061,284.400208 
	C260.680115,288.723724 260.166351,294.519165 256.769409,298.282715 
	C253.054367,302.398682 248.707291,302.881653 242.512939,299.600586 
z"/>
<path fill="#EBFDF5" opacity="1.000000" stroke="none" 
	d="
M142.419510,196.812866 
	C135.870361,194.520020 132.938812,190.604599 133.555984,185.465317 
	C134.163315,180.408127 138.217865,176.447800 143.091537,176.151337 
	C149.543198,175.758881 154.342911,179.757065 154.730209,185.846375 
	C155.134140,192.197235 150.266800,196.695450 142.419510,196.812866 
z"/>
<path fill="#EDFDF6" opacity="1.000000" stroke="none" 
	d="
M248.955734,180.994751 
	C248.955734,180.994751 249.169296,180.740479 249.523621,180.442657 
	C254.817261,175.832626 259.243378,175.085403 263.754547,177.848770 
	C268.071381,180.493118 268.623688,184.587326 268.003510,189.106277 
	C267.361359,193.785141 263.436707,195.154053 260.005768,197.018311 
	C258.626099,196.948303 257.246460,196.878281 255.244019,196.571960 
	C247.850723,191.824402 246.842422,189.094162 248.955734,180.994751 
z"/>
<path fill="#52D791" opacity="1.000000" stroke="none" 
	d="
M260.043640,197.341431 
	C263.436707,195.154053 267.361359,193.785141 268.003510,189.106277 
	C268.623688,184.587326 268.071381,180.493118 263.754547,177.848770 
	C259.243378,175.085403 254.817261,175.832626 249.546783,180.278259 
	C251.136368,177.959656 252.574753,174.361588 255.083160,173.305847 
	C259.620789,171.396057 264.175537,173.908142 267.101257,177.345688 
	C273.351013,184.688751 271.006317,194.484299 262.446228,198.167282 
	C261.841949,198.427277 260.878174,197.851639 260.043640,197.341431 
z"/>
<path fill="#52D791" opacity="1.000000" stroke="none" 
	d="
M248.588928,180.986954 
	C246.842422,189.094162 247.850723,191.824402 254.829712,196.591400 
	C253.294647,196.627121 250.833328,197.063110 249.930191,196.074982 
	C245.723480,191.472321 244.025589,185.715164 242.986938,179.158127 
	C245.240143,179.941895 246.731125,180.460526 248.588928,180.986954 
z"/>
</svg>